# xmcd CD database file
#
# Track frame offsets:
#	150
#	17062
#	29171
#	40755
#	53361
#	66185
#	83184
#	108528
#	145695
#	163848
#	179075
#	200419
#	220864
#
# Disc length: 3511 seconds
#
# Revision: 0
# Processed by: cddbd v1.5.2PL0 Copyright (c) Steve Scherf et al.
# Submitted via: CDex 1.51
#
DISCID=b90db50d
DTITLE=King Pleasure and The Biscuit Boys - Live At Last
DYEAR=2010
DGENRE=Jazz
TTITLE0=Wake It Up Baby
TTITLE1=I'll Be Satisfied
TTITLE2=Big Girl
TTITLE3=You Upset Me Baby
TTITLE4=Let 'Em Roll
TTITLE5=Can't Get Enough
TTITLE6=Jump For Joy
TTITLE7=Tequila
TTITLE8=All Or Nothing
TTITLE9=Oh, Marie
TTITLE10=Roll With My Baby
TTITLE11=Goin' To California
TTITLE12=Walkin' Mr B
EXTD=YEAR: 2010
EXTT0=
EXTT1=
EXTT2=
EXTT3=
EXTT4=
EXTT5=
EXTT6=
EXTT7=
EXTT8=
EXTT9=
EXTT10=
EXTT11=
EXTT12=
PLAYORDER=
